<?xml version="1.0" encoding="UTF-8"?>
<svg id="Layer_2" data-name="Layer 2" xmlns="http://www.w3.org/2000/svg" viewBox="0 0 582.89 582.72">
  <defs>
    <style>
      .cls-1 {
        fill: #000;
      }

      .cls-1, .cls-2, .cls-3 {
        stroke-width: 0px;
      }

      .cls-2 {
        fill: none;
      }

      .cls-3 {
        fill: #ed1c24;
      }
    </style>
  </defs>
  <g id="Layer_1-2" data-name="Layer 1">
    <g>
      <g>
        <path class="cls-2" d="M47.1,143.05c45.33,65.65,103.56,115.85,130.06,112.13,11.65-1.64,15.22-13.43,11.73-31.71-24.33-8.29-54.84-30.24-82.3-61.31C63.15,112.99,43.25,59.04,60.42,38.85,41.19,23.98,24.25,15.85,13.01,17.43c-26.5,3.73-11.24,59.97,34.09,125.62Z"/>
        <g>
          <path class="cls-1" d="M188.23,222.71c-24.96-8.77-55.26-31.46-81.27-60.89-42.74-48.36-63.03-101.88-46.46-122.28,27.15,21.08,57.08,53.96,82.17,90.3,24.15,34.98,40.72,68.76,45.57,92.87Z"/>
          <path class="cls-1" d="M60.58,40.24c27.01,21.06,56.73,53.76,81.67,89.88,23.83,34.51,40.25,67.83,45.31,91.82-24.72-8.95-54.56-31.41-80.22-60.45-20.87-23.62-37.08-49.26-45.63-72.2-8.21-22.03-8.6-39.38-1.13-49.05M60.42,38.85c-17.18,20.19,2.72,74.14,46.17,123.3,27.46,31.07,57.96,53.02,82.3,61.31-4.46-23.29-20.41-57.12-45.81-93.91-26.12-37.83-56.51-70.5-82.65-90.7h0Z"/>
        </g>
      </g>
      <g>
        <path class="cls-2" d="M531.83,171.81c40.23-68.9,60.99-142.92,46.37-165.34-6.43-9.86-18.62-8.09-33.69,2.83,2.81,25.55-4.13,62.49-20.62,100.54-26.09,60.19-66.51,101.1-92.08,94.11-5.3,23.72-5.49,42.52.71,52.02,14.62,22.42,59.08-15.26,99.3-84.15Z"/>
        <g>
          <path class="cls-1" d="M437.78,204.22c-1.86,0-3.66-.22-5.37-.64,7.57-33.53,24.66-74.57,46.92-112.71,21.43-36.71,44.99-66.03,64.78-80.66,2.64,26.32-5.05,63.39-20.67,99.42-23.76,54.8-59.78,94.58-85.66,94.58h0Z"/>
          <path class="cls-1" d="M543.7,11.15c2.38,26.18-5.3,62.73-20.72,98.29-11.55,26.64-26.59,50.81-42.35,68.05-15.46,16.91-30.68,26.23-42.85,26.23-1.64,0-3.25-.17-4.77-.51,7.61-33.39,24.62-74.17,46.76-112.08,21.14-36.21,44.35-65.22,63.93-79.98M544.52,9.3c-19.2,13.92-43.07,42.71-65.61,81.32-23.18,39.69-39.87,81.07-47.08,113.32,1.91.52,3.9.78,5.96.78,25.56,0,61.97-39.18,86.12-94.88,16.49-38.04,23.43-74.98,20.62-100.54h0Z"/>
        </g>
      </g>
      <g>
        <path class="cls-3" d="M310.73,555.22c-115.24,0-209-93.76-209-209s93.76-209,209-209,209,93.76,209,209-93.76,209-209,209Z"/>
        <path class="cls-1" d="M310.73,137.72c28.15,0,55.45,5.51,81.16,16.38,24.83,10.5,47.13,25.54,66.27,44.68,19.15,19.15,34.18,41.45,44.68,66.27,10.87,25.7,16.38,53.01,16.38,81.16s-5.51,55.45-16.38,81.16c-10.5,24.83-25.54,47.13-44.68,66.27s-41.45,34.18-66.27,44.68c-25.7,10.87-53.01,16.38-81.16,16.38s-55.45-5.51-81.16-16.38c-24.83-10.5-47.13-25.54-66.27-44.68s-34.18-41.45-44.68-66.27c-10.87-25.7-16.38-53.01-16.38-81.16s5.51-55.45,16.38-81.16c10.5-24.83,25.54-47.13,44.68-66.27,19.15-19.15,41.45-34.18,66.27-44.68,25.7-10.87,53.01-16.38,81.16-16.38M310.73,136.72c-115.7,0-209.5,93.8-209.5,209.5s93.8,209.5,209.5,209.5,209.5-93.8,209.5-209.5-93.8-209.5-209.5-209.5h0Z"/>
      </g>
      <g>
        <path class="cls-2" d="M428.19,409.59c-13.54,27.72-59.65,48.13-114.46,48.13s-96.42-18.47-112.26-44.14c-32.78,17.86-53.24,43.13-53.24,71.14,0,54.12,76.34,98,170.5,98s170.5-43.88,170.5-98c0-30.17-23.73-57.15-61.04-75.13Z"/>
        <g>
          <path class="cls-1" d="M313.73,457.22c-50.39,0-95.11-17.44-111.56-43.45,31.67-17.12,73.03-26.55,116.56-26.55,39.71,0,78.32,8.02,108.79,22.6-14.04,27.93-60.71,47.4-113.79,47.4Z"/>
          <path class="cls-1" d="M318.73,387.72c39.44,0,77.78,7.93,108.11,22.33-14.24,27.53-60.5,46.67-113.11,46.67s-94.26-17.15-110.85-42.77c31.53-16.92,72.62-26.23,115.85-26.23M318.73,386.72c-45.43,0-86.7,10.21-117.26,26.86,15.85,25.66,60.12,44.14,112.26,44.14,54.81,0,100.92-20.41,114.46-48.13-29.62-14.27-67.79-22.87-109.46-22.87h0Z"/>
        </g>
      </g>
      <g>
        <path class="cls-2" d="M424.82,334.61c30.35-17.57,45.53-48.09,33.91-68.16-5.11-8.83-14.55-14.16-26.11-15.88,2.5,15.71-2.42,32.71-14.74,45.37-19.49,20.04-50.34,21.91-70.27,4.76-3.82,10.48-3.72,20.86,1.2,29.37,11.62,20.07,45.65,22.1,76,4.53Z"/>
        <g>
          <path class="cls-1" d="M379.54,311.88c-11.6,0-22.71-4.02-31.33-11.33,5.45-14.64,18.1-28.55,34.77-38.2,13.24-7.67,27.85-11.89,41.13-11.89,2.77,0,5.49.19,8.08.55,2.43,15.99-3.04,32.63-14.66,44.58-10.07,10.35-23.91,16.29-37.99,16.29h0Z"/>
          <path class="cls-1" d="M424.11,250.96c2.62,0,5.18.17,7.64.5,2.27,15.72-3.15,32.04-14.58,43.79-9.97,10.25-23.69,16.14-37.63,16.14-11.36,0-22.25-3.9-30.74-10.98,5.47-14.41,17.98-28.09,34.43-37.62,13.17-7.62,27.68-11.82,40.88-11.82M424.11,249.96c-12.91,0-27.52,3.93-41.38,11.96-17.49,10.12-29.92,24.55-35.11,38.79,9.08,7.81,20.42,11.68,31.92,11.68,13.75,0,27.73-5.52,38.35-16.44,12.32-12.67,17.24-29.67,14.74-45.38-2.73-.41-5.58-.61-8.52-.61h0Z"/>
        </g>
      </g>
      <g>
        <path class="cls-2" d="M202.57,342.34c30.99,16.41,64.92,13.1,75.77-7.4,4.77-9.01,4.29-19.85-.38-30.55-11.99,10.45-29.01,15.29-46.28,11.57-27.33-5.9-45.27-31.06-41.3-57.05-10.91,2.32-19.66,7.91-24.27,16.6-10.86,20.5,5.47,50.42,36.46,66.84Z"/>
        <g>
          <path class="cls-1" d="M243.31,316.7c-3.85,0-7.73-.42-11.53-1.24-26.77-5.78-44.7-30.39-40.96-56.14,3.69-.76,7.64-1.14,11.74-1.14,12.77,0,26.29,3.58,39.09,10.36,16.5,8.74,29.5,21.74,35.7,35.71-9.35,8.03-21.42,12.45-34.04,12.45h0Z"/>
          <path class="cls-1" d="M202.56,258.68c12.69,0,26.13,3.56,38.86,10.31,16.27,8.62,29.11,21.39,35.33,35.13-9.22,7.8-21.06,12.09-33.44,12.09-3.81,0-7.65-.41-11.42-1.23-26.4-5.69-44.11-29.87-40.62-55.23,3.56-.71,7.35-1.06,11.29-1.06M202.56,257.68c-4.27,0-8.36.41-12.18,1.22-3.97,25.99,13.97,51.15,41.3,57.05,3.91.84,7.81,1.25,11.63,1.25,13.09,0,25.38-4.73,34.65-12.81-5.95-13.65-18.71-27.09-36.08-36.28-13.25-7.02-27.04-10.42-39.32-10.42h0Z"/>
        </g>
      </g>
    </g>
  </g>
</svg>